# xmcd
#
# Track frame offsets:
#	150
#	18940
#	39932
#	59597
#
# Disc length: 1080 seconds
#
# Revision: 0
# Processed by: cddbd v1.5.2PL0 Copyright (c) Steve Scherf et al.
# Submitted via: audiograbber 1.83.01
#
DISCID=29043604
DTITLE=Kut Klose - I Like [CDS)
DYEAR=1995
DGENRE=R&B
TTITLE0=I Like (Edit)
TTITLE1=I Like (Remix)
TTITLE2=Lay My Body |Down
TTITLE3=Like You've Never Been Done - Get Up On It (Remix)
EXTD=
EXTT0=
EXTT1=
EXTT2=
EXTT3=
PLAYORDER=
